{
    "asset" : {
        "generator" : "Khronos glTF Blender I/O v1.3.48",
        "version" : "2.0"
    },
    "scene" : 0,
    "scenes" : [
        {
            "name" : "Scene",
            "nodes" : [
                0
            ]
        }
    ],
    "nodes" : [
        {
            "mesh" : 0,
            "name" : "BeanBag",
            "scale" : [
                0.5,
                0.75,
                0.5
            ]
        }
    ],
    "meshes" : [
        {
            "name" : "Cylinder",
            "primitives" : [
                {
                    "attributes" : {
                        "POSITION" : 0,
                        "NORMAL" : 1,
                        "TEXCOORD_0" : 2
                    },
                    "indices" : 3
                }
            ]
        }
    ],
    "accessors" : [
        {
            "bufferView" : 0,
            "componentType" : 5126,
            "count" : 7845,
            "max" : [
                2.069658041000366,
                0.9717987775802612,
                2.0203745365142822
            ],
            "min" : [
                -1.9923362731933594,
                0.022673744708299637,
                -2.0387380123138428
            ],
            "type" : "VEC3"
        },
        {
            "bufferView" : 1,
            "componentType" : 5126,
            "count" : 7845,
            "type" : "VEC3"
        },
        {
            "bufferView" : 2,
            "componentType" : 5126,
            "count" : 7845,
            "type" : "VEC2"
        },
        {
            "bufferView" : 3,
            "componentType" : 5123,
            "count" : 38400,
            "type" : "SCALAR"
        }
    ],
    "bufferViews" : [
        {
            "buffer" : 0,
            "byteLength" : 94140,
            "byteOffset" : 0
        },
        {
            "buffer" : 0,
            "byteLength" : 94140,
            "byteOffset" : 94140
        },
        {
            "buffer" : 0,
            "byteLength" : 62760,
            "byteOffset" : 188280
        },
        {
            "buffer" : 0,
            "byteLength" : 76800,
            "byteOffset" : 251040
        }
    ],
    "buffers" : [
        {
            "byteLength" : 327840,
            "uri" : "data:application/octet-stream;base64,"
        }
    ]
}
