{
    "asset" : {
        "generator" : "Khronos glTF Blender I/O v1.3.48",
        "version" : "2.0"
    },
    "scene" : 0,
    "scenes" : [
        {
            "name" : "Scene",
            "nodes" : [
                3,
                4
            ]
        }
    ],
    "nodes" : [
        {
            "mesh" : 0,
            "name" : "CoPilot",
            "rotation" : [
                0.06578678637742996,
                0,
                0,
                0.9978337287902832
            ],
            "translation" : [
                0,
                0.624133825302124,
                3.162503957748413
            ]
        },
        {
            "mesh" : 1,
            "name" : "Pilot",
            "translation" : [
                0,
                0.7103760242462158,
                1.5759696960449219
            ]
        },
        {
            "mesh" : 2,
            "name" : "Propeller",
            "rotation" : [
                0.6532815098762512,
                -0.27059805393218994,
                -0.27059805393218994,
                0.6532814502716064
            ],
            "translation" : [
                0,
                0,
                -2.1712982654571533
            ]
        },
        {
            "children" : [
                0,
                1,
                2
            ],
            "mesh" : 3,
            "name" : "Plane",
            "scale" : [
                1.1503063440322876,
                1.1503063440322876,
                1.1503063440322876
            ],
            "translation" : [
                0,
                1.4520263671875,
                -0.1349707841873169
            ]
        },
        {
            "name" : "Camera",
            "rotation" : [
                0.46241405606269836,
                0.40878206491470337,
                -0.2637335956096649,
                0.7412928342819214
            ],
            "translation" : [
                14.80502700805664,
                9.738814353942871,
                11.965539932250977
            ]
        }
    ],
    "materials" : [
        {
            "doubleSided" : true,
            "emissiveFactor" : [
                0,
                0,
                0
            ],
            "name" : "Material.005",
            "pbrMetallicRoughness" : {
                "baseColorTexture" : {
                    "index" : 0,
                    "texCoord" : 0
                },
                "metallicFactor" : 0,
                "roughnessFactor" : 1
            }
        },
        {
            "doubleSided" : true,
            "emissiveFactor" : [
                0,
                0,
                0
            ],
            "name" : "Material.004",
            "pbrMetallicRoughness" : {
                "baseColorTexture" : {
                    "index" : 1,
                    "texCoord" : 0
                },
                "metallicFactor" : 0,
                "roughnessFactor" : 1
            }
        },
        {
            "doubleSided" : true,
            "emissiveFactor" : [
                0,
                0,
                0
            ],
            "name" : "Material.003",
            "pbrMetallicRoughness" : {
                "baseColorTexture" : {
                    "index" : 2,
                    "texCoord" : 0
                },
                "metallicFactor" : 0,
                "roughnessFactor" : 0.4272727370262146
            }
        },
        {
            "doubleSided" : true,
            "emissiveFactor" : [
                0,
                0,
                0
            ],
            "name" : "Material.001",
            "pbrMetallicRoughness" : {
                "baseColorTexture" : {
                    "index" : 3,
                    "texCoord" : 0
                },
                "metallicFactor" : 0,
                "roughnessFactor" : 0.4272727370262146
            }
        }
    ],
    "meshes" : [
        {
            "name" : "Cube.002",
            "primitives" : [
                {
                    "attributes" : {
                        "POSITION" : 0,
                        "NORMAL" : 1,
                        "TEXCOORD_0" : 2
                    },
                    "indices" : 3,
                    "material" : 0
                }
            ]
        },
        {
            "name" : "Cube.001",
            "primitives" : [
                {
                    "attributes" : {
                        "POSITION" : 4,
                        "NORMAL" : 5,
                        "TEXCOORD_0" : 6
                    },
                    "indices" : 7,
                    "material" : 1
                }
            ]
        },
        {
            "name" : "Cylinder.002",
            "primitives" : [
                {
                    "attributes" : {
                        "POSITION" : 8,
                        "NORMAL" : 9,
                        "TEXCOORD_0" : 10
                    },
                    "indices" : 11,
                    "material" : 2
                }
            ]
        },
        {
            "name" : "Plane.003",
            "primitives" : [
                {
                    "attributes" : {
                        "POSITION" : 12,
                        "NORMAL" : 13,
                        "TEXCOORD_0" : 14
                    },
                    "indices" : 15,
                    "material" : 3
                }
            ]
        }
    ],
    "textures" : [
        {
            "source" : 0
        },
        {
            "source" : 0
        },
        {
            "source" : 1
        },
        {
            "source" : 2
        }
    ],
    "images" : [
        {
            "bufferView" : 4,
            "mimeType" : "image/jpeg",
            "name" : "PilotTexV1"
        },
        {
            "bufferView" : 13,
            "mimeType" : "image/jpeg",
            "name" : "PropTexV1"
        },
        {
            "bufferView" : 18,
            "mimeType" : "image/jpeg",
            "name" : "PlaneTexV1"
        }
    ],
    "accessors" : [
        {
            "bufferView" : 0,
            "componentType" : 5126,
            "count" : 122,
            "max" : [
                0.3722444474697113,
                0.9318536520004272,
                0.36321762204170227
            ],
            "min" : [
                -0.3722444474697113,
                -0.430296391248703,
                -0.5152410268783569
            ],
            "type" : "VEC3"
        },
        {
            "bufferView" : 1,
            "componentType" : 5126,
            "count" : 122,
            "type" : "VEC3"
        },
        {
            "bufferView" : 2,
            "componentType" : 5126,
            "count" : 122,
            "type" : "VEC2"
        },
        {
            "bufferView" : 3,
            "componentType" : 5123,
            "count" : 414,
            "type" : "SCALAR"
        },
        {
            "bufferView" : 5,
            "componentType" : 5126,
            "count" : 138,
            "max" : [
                0.43080735206604004,
                0.9405360221862793,
                0.3951990306377411
            ],
            "min" : [
                -0.43080735206604004,
                -0.46818411350250244,
                -0.5536545515060425
            ],
            "type" : "VEC3"
        },
        {
            "bufferView" : 6,
            "componentType" : 5126,
            "count" : 138,
            "type" : "VEC3"
        },
        {
            "bufferView" : 7,
            "componentType" : 5126,
            "count" : 138,
            "type" : "VEC2"
        },
        {
            "bufferView" : 8,
            "componentType" : 5123,
            "count" : 462,
            "type" : "SCALAR"
        },
        {
            "bufferView" : 9,
            "componentType" : 5126,
            "count" : 494,
            "max" : [
                2.409299373626709,
                0.15407505631446838,
                0.313321590423584
            ],
            "min" : [
                -2.409299373626709,
                -0.48436039686203003,
                -0.313321590423584
            ],
            "type" : "VEC3"
        },
        {
            "bufferView" : 10,
            "componentType" : 5126,
            "count" : 494,
            "type" : "VEC3"
        },
        {
            "bufferView" : 11,
            "componentType" : 5126,
            "count" : 494,
            "type" : "VEC2"
        },
        {
            "bufferView" : 12,
            "componentType" : 5123,
            "count" : 912,
            "type" : "SCALAR"
        },
        {
            "bufferView" : 14,
            "componentType" : 5126,
            "count" : 4026,
            "max" : [
                6.910928726196289,
                2.156529188156128,
                9.724760055541992
            ],
            "min" : [
                -6.910928726196289,
                -2.9240593910217285,
                -2.0167171955108643
            ],
            "type" : "VEC3"
        },
        {
            "bufferView" : 15,
            "componentType" : 5126,
            "count" : 4026,
            "type" : "VEC3"
        },
        {
            "bufferView" : 16,
            "componentType" : 5126,
            "count" : 4026,
            "type" : "VEC2"
        },
        {
            "bufferView" : 17,
            "componentType" : 5123,
            "count" : 4581,
            "type" : "SCALAR"
        }
    ],
    "bufferViews" : [
        {
            "buffer" : 0,
            "byteLength" : 1464,
            "byteOffset" : 0
        },
        {
            "buffer" : 0,
            "byteLength" : 1464,
            "byteOffset" : 1464
        },
        {
            "buffer" : 0,
            "byteLength" : 976,
            "byteOffset" : 2928
        },
        {
            "buffer" : 0,
            "byteLength" : 828,
            "byteOffset" : 3904
        },
        {
            "buffer" : 0,
            "byteLength" : 140097,
            "byteOffset" : 4732
        },
        {
            "buffer" : 0,
            "byteLength" : 1656,
            "byteOffset" : 144832
        },
        {
            "buffer" : 0,
            "byteLength" : 1656,
            "byteOffset" : 146488
        },
        {
            "buffer" : 0,
            "byteLength" : 1104,
            "byteOffset" : 148144
        },
        {
            "buffer" : 0,
            "byteLength" : 924,
            "byteOffset" : 149248
        },
        {
            "buffer" : 0,
            "byteLength" : 5928,
            "byteOffset" : 150172
        },
        {
            "buffer" : 0,
            "byteLength" : 5928,
            "byteOffset" : 156100
        },
        {
            "buffer" : 0,
            "byteLength" : 3952,
            "byteOffset" : 162028
        },
        {
            "buffer" : 0,
            "byteLength" : 1824,
            "byteOffset" : 165980
        },
        {
            "buffer" : 0,
            "byteLength" : 255490,
            "byteOffset" : 167804
        },
        {
            "buffer" : 0,
            "byteLength" : 48312,
            "byteOffset" : 423296
        },
        {
            "buffer" : 0,
            "byteLength" : 48312,
            "byteOffset" : 471608
        },
        {
            "buffer" : 0,
            "byteLength" : 32208,
            "byteOffset" : 519920
        },
        {
            "buffer" : 0,
            "byteLength" : 9162,
            "byteOffset" : 552128
        },
        {
            "buffer" : 0,
            "byteLength" : 781718,
            "byteOffset" : 561292
        }
    ],
    "buffers" : [
        {
            "byteLength" : 1343012,
            "uri" : "data:application/octet-stream;base64,"
        }
    ]
}
